<?xml version="1.0" standalone="no"?><!DOCTYPE svg PUBLIC "-//W3C//DTD SVG 1.1//EN" "http://www.w3.org/Graphics/SVG/1.1/DTD/svg11.dtd"><svg class="icon" width="200px" height="200.00px" viewBox="0 0 1024 1024" version="1.1" xmlns="http://www.w3.org/2000/svg"><path d="M780.19 438.857h48.76v48.76h-48.76zM438.856 243.811h48.76v48.76h-48.76z m195.047 97.521h48.76v48.764h-48.76z m97.525-48.76h48.76v48.76h-48.76z m0-48.761h48.76v48.76h-48.76z m48.76 97.521h48.761v48.764h-48.76z m0-48.76h48.761v48.76h-48.76z m-97.525 0h48.765v48.76h-48.765z m97.525-48.761h48.761v48.76h-48.76z m-243.81 48.76h48.764v48.761h-48.764z m48.764 0h48.76v48.761h-48.76z m48.76 0h48.761v48.761h-48.76z m-195.046 0h48.76v48.761h-48.76z m48.76 0h48.762v48.761h-48.761z m-97.52 0h48.76v48.761h-48.76z m-48.765 0h48.764v48.761h-48.764zM536.38 438.857h48.764v48.76h-48.764z m195.05-48.76h48.76v48.76h-48.76z m48.76 0h48.761v48.76h-48.76z m-97.525 0h48.765v48.76h-48.765z m-146.285 0h48.764v48.76h-48.764z m48.764 0h48.76v48.76h-48.76z m-97.525 0h48.76v48.76h-48.76z m146.286 0h48.76v48.76h-48.76z m-243.808 0h48.761v48.76h-48.76z m48.761 0h48.76v48.76h-48.76z m-97.525 0h48.764v48.76h-48.764z m292.572 146.282h48.76v48.764h-48.76z m-146.286 0h48.76v48.764h-48.76z m292.571 0h48.761v48.764h-48.76z m0-48.761h48.761v48.76h-48.76z m-48.76 0h48.76v48.76h-48.76z m-97.525 0h48.76v48.76h-48.76z m48.76 0h48.765v48.76h-48.765z m-97.521 0h48.76v48.76h-48.76z m-48.764 0h48.764v48.76h-48.764z m-48.761 0h48.76v48.76h-48.76z m-97.522 0h48.761v48.76h-48.76z m48.761 0h48.76v48.76h-48.76z m-97.525 0h48.764v48.76h-48.764z m341.332 146.286h48.765v48.76h-48.765z m-48.76 0h48.76v48.76h-48.76z m97.525-48.761h48.76v48.76h-48.76z m-48.765 0h48.765v48.76h-48.765z m-48.76 0h48.76v48.76h-48.76z m-48.761 0h48.76v48.76h-48.76z m-97.525 0h48.76v48.76h-48.76z m48.76 0h48.765v48.76h-48.764z m-146.282 0h48.761v48.76h-48.76z m48.761 0h48.76v48.76h-48.76z m-97.525 0h48.764v48.76h-48.764z m243.81 97.521h48.762v48.765h-48.761z m-97.524 0h48.76v48.765h-48.76z m48.76 0h48.765v48.765h-48.764z m-97.52 0h48.76v48.765h-48.76z m-48.762 0h48.761v48.765h-48.76z m-48.764 0h48.764v48.765h-48.764z m243.81-48.76h48.762v48.76h-48.761z m-48.763 0h48.764v48.76h-48.764z" fill="#E9D5AA" /><path d="M487.618 633.904h48.76v48.76h-48.76z m-97.522 0h48.761v48.76h-48.76z m48.761 0h48.76v48.76h-48.76z m-97.525 0h48.764v48.76h-48.764z m390.097-97.525h48.76v48.764h-48.76z m-48.765 0h48.765v48.764h-48.765z m-146.285 0h48.764v48.764h-48.764z m48.764 0h48.76v48.764h-48.76z m-243.81 0h48.763v48.764h-48.764z m48.763 0h48.761v48.764h-48.76z m48.761 0h48.76v48.764h-48.76z m292.572-97.522h48.76v48.76h-48.76z m-48.765 0h48.765v48.76h-48.765z m-48.76 0h48.76v48.76h-48.76z m-48.761 0h48.76v48.76h-48.76z m-97.525 0h48.76v48.76h-48.76z m-48.76 0h48.76v48.76h-48.76z m-48.762 0h48.761v48.76h-48.76z m-48.764 0h48.764v48.76h-48.764z m390.097-97.525h48.76v48.764h-48.76z m-48.765 0h48.765v48.764h-48.765z m-97.521 0h48.76v48.764h-48.76z m-48.764 0h48.764v48.764h-48.764z m-146.283 0h48.761v48.764h-48.76z m97.522 0h48.76v48.764h-48.76z m-48.76 0h48.76v48.764h-48.76z m-97.526 0h48.764v48.764h-48.764z m341.332-97.521h48.765v48.76h-48.765z m-146.285 0h48.764v48.76h-48.764z m48.764 0h48.76v48.76h-48.76z m48.76 0h48.761v48.76h-48.76z m-146.285 0h48.76v48.76h-48.76z m-97.522 0h48.761v48.76h-48.76z m-48.764 0h48.764v48.76h-48.764z" fill="#68748A" /><path d="M682.664 731.429h48.765v48.76h-48.765z m-48.76 0h48.76v48.76h-48.76z m48.76-48.765h48.765v48.765h-48.765z m-48.76 0h48.76v48.765h-48.76z" fill="#E33A43" /><path d="M731.429 780.19h48.76v48.76h-48.76z m-97.525 0h48.76v48.76h-48.76z m48.76 0h48.765v48.76h-48.765z m-97.521 0h48.76v48.76h-48.76z m-97.525 0h48.76v48.76h-48.76z m48.76 0h48.765v48.76h-48.764z m-195.046 0h48.764v48.76h-48.764z m48.764 0h48.761v48.76h-48.76z m48.761 0h48.76v48.76h-48.76z m48.76-48.761h48.762v48.76h-48.761z m48.762 0h48.764v48.76h-48.764z m48.764 0h48.76v48.76h-48.76z m-146.286 0h48.76v48.76h-48.76z m-48.76 0h48.76v48.76h-48.76z m-48.765 0h48.764v48.76h-48.764z m-48.76 97.521h48.76v48.764h-48.76z" fill="#E9D5AA" /><path d="M292.571 731.429h48.761v48.76h-48.76z m-48.76-292.572h48.76v48.76h-48.76z" fill="#FFFFFF" /><path d="M292.571 438.857h48.761v48.76h-48.76z m0-48.76h48.761v48.76h-48.76z" fill="#E9D5AA" /><path d="M292.571 682.664h48.761v48.765h-48.76z" fill="#FFFFFF" /><path d="M292.571 633.904h48.761v48.76h-48.76z m0-390.093h48.761v48.76h-48.76z m0 292.568h48.761v48.764h-48.76z m0-48.761h48.761v48.76h-48.76z m0-195.047h48.761v48.761h-48.76z m-48.76 292.572h48.76v48.76h-48.76z m0-292.572h48.76v48.761h-48.76z m0-48.76h48.76v48.76h-48.76z m48.76 97.521h48.761v48.764h-48.76z m-48.76 0h48.76v48.764h-48.76z" fill="#E9D5AA" /><path d="M243.81 633.904h48.761v48.76h-48.76z" fill="#FFFFFF" /><path d="M243.81 390.096h48.761v48.761h-48.76z m48.761 195.047h48.761v48.76h-48.76z m0 195.046h48.761v48.761h-48.76z" fill="#E9D5AA" /><path d="M243.81 536.379h48.761v48.764h-48.76z m0-48.761h48.761v48.76h-48.76z m0 195.046h48.761v48.765h-48.76z" fill="#FFFFFF" /><path d="M195.046 877.714h48.765v48.761h-48.765z m48.765 0h48.76v48.761h-48.76z m0-97.525h48.76v48.761h-48.76z m0 48.761h48.76v48.764h-48.76z m-48.765-243.807h48.765v48.76h-48.765z m0-195.047h48.765v48.761h-48.765z m0 146.283h48.765v48.764h-48.765z m0 146.285h48.765v48.765h-48.765z" fill="#E9D5AA" /><path d="M195.046 438.857h48.765v48.76h-48.765z" fill="#FFFFFF" /><path d="M195.046 341.332h48.765v48.764h-48.765z m48.765 390.097h48.76v48.76h-48.76z m-48.765 0h48.765v48.76h-48.765z m0 48.76h48.765v48.761h-48.765z m0-487.618h48.765v48.761h-48.765z m0 536.379h48.765v48.764h-48.765z m0-341.332h48.765v48.76h-48.765z m0 146.286h48.765v48.76h-48.765z m0-390.093h48.765v48.76h-48.765zM780.19 682.664h48.761v48.765h-48.76z m48.761-487.618h48.764v48.765H828.95z m0-48.76h48.764v48.76H828.95z m0 97.525h48.764v48.76H828.95z m-48.76 487.618h48.76v48.76h-48.76z m0-97.525h48.76v48.76h-48.76z m0 146.285h48.76v48.761h-48.76z m0-195.046h48.76v48.76h-48.76z m48.76-292.572h48.764v48.761H828.95z m-97.521-146.285h48.76v48.76h-48.76z m-48.765-48.761h48.765v48.76h-48.765z m48.765 97.521h48.76v48.765h-48.76z" fill="#E9D5AA" /><path d="M731.429 97.525h48.76v48.76h-48.76z m48.76 48.76h48.761v48.761h-48.76z m-48.76 487.619h48.76v48.76h-48.76z m0 97.525h48.76v48.76h-48.76z" fill="#E9D5AA" /><path d="M780.19 195.046h48.76v48.765h-48.76z" fill="#FFFFFF" /><path d="M731.429 682.664h48.76v48.765h-48.76z m48.76-585.139h48.761v48.76h-48.76z m-97.525 48.76h48.765v48.761h-48.765z m0 48.761h48.765v48.765h-48.765z m-97.521 0h48.76v48.765h-48.76z m-48.764-97.521h48.764v48.76h-48.764z m97.525 97.521h48.76v48.765h-48.76z m0-97.521h48.76v48.76h-48.76z" fill="#E9D5AA" /><path d="M536.379 146.286h48.764v48.76h-48.764z m0 48.76h48.764v48.765h-48.764z m48.764-48.76h48.76v48.76h-48.76zM585.143 97.525h48.76v48.76h-48.76z m48.76 48.76h48.761v48.761h-48.76z m-195.046 48.761h48.76v48.765h-48.76z m48.76 0h48.762v48.765h-48.761z m0-48.76h48.762v48.76h-48.761z" fill="#E9D5AA" /><path d="M487.618 97.525h48.76v48.76h-48.76z m-48.76 48.76h48.76v48.761h-48.76z m-48.762-48.76h48.761v48.76h-48.76z" fill="#E9D5AA" /><path d="M390.096 146.286h48.761v48.76h-48.76z m48.761-48.761h48.76v48.76h-48.76z m-48.76 97.521h48.76v48.765h-48.76z m-97.526-48.76h48.761v48.76h-48.76z m0 48.76h48.761v48.765h-48.76z m-48.76 0h48.76v48.765h-48.76z m97.521-97.521h48.764v48.76h-48.764z m-97.521 48.76h48.76v48.761h-48.76z" fill="#E9D5AA" /><path d="M292.571 97.525h48.761v48.76h-48.76z m-48.76 0h48.76v48.76h-48.76z m97.521 97.521h48.764v48.765h-48.764z m0-48.76h48.764v48.76h-48.764zM146.286 97.525h48.76v48.76h-48.76z m48.76 97.521h48.765v48.765h-48.765z m0-48.76h48.765v48.76h-48.765z" fill="#E9D5AA" /><path d="M195.046 97.525h48.765v48.76h-48.765z" fill="#FFFFFF" /><path d="M828.95 438.857h48.764v48.76H828.95z m0 341.332h48.764v48.761H828.95z m0-390.093h48.764v48.761H828.95z m0 195.047h48.764v48.76H828.95z m0-243.81h48.764v48.763H828.95z m0 146.285h48.764v48.76H828.95z m0 48.76h48.764v48.765H828.95z" fill="#E9D5AA" /><path d="M877.714 926.475h48.761v48.76h-48.76z m-536.382 0h48.764v48.76h-48.764z m438.857-48.76h48.761v48.76h-48.76z m-146.285 0h48.76v48.76h-48.76z m97.525 0h48.76v48.76h-48.76z m-48.765 0h48.765v48.76h-48.765z m-146.285 0h48.764v48.76h-48.764z m-48.761 0h48.76v48.76h-48.76z m97.525 0h48.76v48.76h-48.76z m-195.047 0h48.761v48.76h-48.76z m48.761 0h48.76v48.76h-48.76z m341.332 48.76h48.761v48.76h-48.76z m0-97.525h48.761v48.764h-48.76z m-48.76 97.525h48.76v48.76h-48.76z m-97.525 0h48.76v48.76h-48.76z m48.76 0h48.765v48.76h-48.765z m0-97.525h48.765v48.764h-48.765z m48.765 0h48.76v48.764h-48.76z m-97.525 0h48.76v48.764h-48.76z m-97.525 0h48.764v48.764h-48.764z m48.764 0h48.76v48.764h-48.76z m0 97.525h48.76v48.76h-48.76z m-97.525-97.525h48.76v48.764h-48.76z m0 97.525h48.76v48.76h-48.76z m48.76 0h48.765v48.76h-48.764z m-146.282 0h48.761v48.76h-48.76z m0-97.525h48.761v48.764h-48.76z m48.761 0h48.76v48.764h-48.76z m0 97.525h48.76v48.76h-48.76z m390.093-48.76h48.764v48.76H828.95z m97.525 0h48.76v48.76h-48.76z m0-48.765h48.76v48.764h-48.76z m-48.76 0h48.76v48.764h-48.76z m-48.765 0h48.764v48.764H828.95z m0 97.525h48.764v48.76H828.95z m48.764-48.76h48.761v48.76h-48.76z m-536.382 0h48.764v48.76h-48.764z m0-48.765h48.764v48.764h-48.764z m-97.521 97.525h48.76v48.76h-48.76z m48.76 0h48.761v48.76h-48.76z m0-48.76h48.761v48.76h-48.76zM146.286 195.045h48.76v48.765h-48.76z m0-48.76h48.76v48.76h-48.76zM97.525 97.525h48.76v48.76h-48.76z m0 97.521h48.76v48.765h-48.76zM97.525 146.286h48.76v48.76h-48.76z m-48.764 48.76h48.764v48.765H48.761z m0-48.76h48.764v48.76H48.761z" fill="#E3A573" /><path d="M975.236 877.714H1024v48.761h-48.764z m0-48.764H1024v48.764h-48.764z m-48.761 97.525h48.76v48.76h-48.76z m0-146.286h48.76v48.761h-48.76z m-48.76 195.047h48.76V1024h-48.76z m0-195.047h48.76v48.761h-48.76z m0-48.76h48.76v48.76h-48.76z m0-48.765h48.76v48.765h-48.76z m0-48.76h48.76v48.76h-48.76z m0-48.761h48.76v48.76h-48.76z m0-48.764h48.76v48.764h-48.76z m0-48.761h48.76v48.76h-48.76z m0-48.76h48.76v48.76h-48.76z m0-48.762h48.76v48.761h-48.76z m0-48.764h48.76v48.764h-48.76z m0-48.76h48.76v48.76h-48.76z m0-48.761h48.76v48.76h-48.76z m0-48.765h48.76v48.765h-48.76z m0-48.76h48.76v48.76h-48.76z m-48.765 828.95h48.764V1024H828.95z"  /><path d="M828.95 731.429h48.764v48.76H828.95z" fill="#FFFFFF" /><path d="M828.95 682.664h48.764v48.765H828.95z m0-48.76h48.764v48.76H828.95z" fill="#E9D5AA" /><path d="M828.95 97.525h48.764v48.76H828.95z m-48.76 877.71h48.76V1024h-48.76z m0-926.474h48.76v48.764h-48.76z m-48.761 926.475h48.76V1024h-48.76z m0-926.475h48.76v48.764h-48.76z m-48.765 926.475h48.765V1024h-48.765z m0-926.475h48.765v48.764h-48.765z m-48.76 926.475h48.76V1024h-48.76z m0-926.475h48.76v48.764h-48.76z m-48.761 926.475h48.76V1024h-48.76z m0-926.475h48.76v48.764h-48.76z m-48.764 926.475h48.764V1024h-48.764z m0-926.475h48.764v48.764h-48.764z m-48.761 926.475h48.76V1024h-48.76z m0-926.475h48.76v48.764h-48.76z m-48.76 926.475h48.76V1024h-48.76z m0-926.475h48.76v48.764h-48.76z m-48.762 926.475h48.761V1024h-48.76z m0-926.475h48.761v48.764h-48.76z m-48.764 926.475h48.764V1024h-48.764z m0-926.475h48.764v48.764h-48.764z m-48.76 926.475h48.76V1024h-48.76z m0-926.475h48.76v48.764h-48.76zM243.81 975.236h48.76V1024h-48.76z m0-926.475h48.76v48.764h-48.76z m-48.765 877.714h48.765v48.76h-48.765z m0-877.714h48.765v48.764h-48.765z m-48.76 828.953h48.76v48.761h-48.76z m0-48.764h48.76v48.764h-48.76z m0-48.76h48.76v48.76h-48.76z m0-48.761h48.76v48.76h-48.76z m0-48.765h48.76v48.765h-48.76z m0-48.76h48.76v48.76h-48.76z m0-48.761h48.76v48.76h-48.76z m0-48.764h48.76v48.764h-48.76z m0-48.761h48.76v48.76h-48.76z m0-48.76h48.76v48.76h-48.76z m0-48.762h48.76v48.761h-48.76z m0-48.764h48.76v48.764h-48.76z m0-48.76h48.76v48.76h-48.76z m0-48.761h48.76v48.76h-48.76z m0-195.05h48.76v48.764h-48.76zM97.525 243.81h48.76v48.761h-48.76z m0-195.05h48.76v48.765h-48.76zM48.761 243.81h48.764v48.761H48.761z m0-146.285h48.764v48.76H48.761zM0 195.046h48.76v48.765H0z m0-48.76h48.76v48.76H0z"  /></svg>